<svg xmlns="http://www.w3.org/2000/svg" xmlns:xlink="http://www.w3.org/1999/xlink" xmlns:inkscape="http://www.inkscape.org/namespaces/inkscape" version="1.1" width="384" height="384" viewBox="0 0 384 384">
<defs>
<clipPath id="clip_1">
<path transform="matrix(.24,0,0,.24,0,0)" d="M0 0H1600V1600H0Z" clip-rule="evenodd"/>
</clipPath>
<clipPath id="clip_2">
<path transform="matrix(.24,0,0,.24,0,0)" d="M0 0H1600V1600H0Z" clip-rule="evenodd"/>
</clipPath>
<clipPath id="clip_3">
<path transform="matrix(.24,0,0,.24,0,0)" d="M0 0H1600V1600H0Z" clip-rule="evenodd"/>
</clipPath>
</defs>


<g clip-path="url(#clip_3)">
<path transform="matrix(0,.75,-.75,0,54.448945,162)" stroke-width="24" stroke-linecap="round" stroke-miterlimit="4" stroke-linejoin="miter" fill="none" stroke="#ff5757" d="M11 11H69"/>
<path transform="matrix(0,.75,-.75,0,90.84185,131.98242)" stroke-width="24" stroke-linecap="round" stroke-miterlimit="4" stroke-linejoin="miter" fill="none" stroke="#ff5757" d="M11 11H149.04949"/>
<path transform="matrix(.0000000013089968,.75,-.75,.0000000013089968,127.235698,101.96484)" stroke-width="24" stroke-linecap="round" stroke-miterlimit="4" stroke-linejoin="miter" fill="none" stroke="#ff5757" d="M11 11H229.09644"/>
<path transform="matrix(0,.75,-.75,0,163.62747,71.93555)" stroke-width="24" stroke-linecap="round" stroke-miterlimit="4" stroke-linejoin="miter" fill="none" stroke="#ff5757" d="M11 11H309.1802"/>
<path transform="matrix(0,.75,-.75,0,200.02449,42)" stroke-width="24" stroke-linecap="round" stroke-miterlimit="4" stroke-linejoin="miter" fill="none" stroke="#ff5757" d="M11 11H389"/>
<path transform="matrix(0,-.75,.75,0,329.1,222)" stroke-width="24" stroke-linecap="round" stroke-miterlimit="4" stroke-linejoin="miter" fill="none" stroke="#ff5757" d="M11 11H69"/>
<path transform="matrix(0,-.75,.75,0,292.70515,252.01758)" stroke-width="24" stroke-linecap="round" stroke-miterlimit="4" stroke-linejoin="miter" fill="none" stroke="#ff5757" d="M11 11H149.04949"/>
<path transform="matrix(0,-.75,.75,0,256.31123,282.03517)" stroke-width="24" stroke-linecap="round" stroke-miterlimit="4" stroke-linejoin="miter" fill="none" stroke="#ff5757" d="M11 11H229.09644"/>
<path transform="matrix(0,-.75,.75,0,219.91522,312.06446)" stroke-width="24" stroke-linecap="round" stroke-miterlimit="4" stroke-linejoin="miter" fill="none" stroke="#ff5757" d="M11 11H309.1802"/>
</g>
<path transform="matrix(1,0,0,-1,0,391.91999)" d="M37.948949 169.92H54.448949V229.92H37.948949Z" fill-opacity="0"/>
<path transform="matrix(1,0,0,-1,0,391.91999)" d="M74.34283 139.90145H90.84283V259.93855H74.34283Z" fill-opacity="0"/>
<path transform="matrix(1,0,0,-1,0,391.91999)" d="M110.73671 109.883838H127.23671V289.95619H110.73671Z" fill-opacity="0"/>
<path transform="matrix(1,0,0,-1,0,391.91999)" d="M147.13059 79.85242H163.63059V319.98756H147.13059Z" fill-opacity="0"/>
<path transform="matrix(1,0,0,-1,0,391.91999)" d="M183.52448 49.919996H200.02448V349.91999H183.52448Z" fill-opacity="0"/>
<path transform="matrix(1,0,0,-1,0,391.91999)" d="M219.91835 79.85242H236.41835V319.98756H219.91835Z" fill-opacity="0"/>
<path transform="matrix(1,0,0,-1,0,391.91999)" d="M256.31224 109.883838H272.81224V289.95619H256.31224Z" fill-opacity="0"/>
<path transform="matrix(1,0,0,-1,0,391.91999)" d="M292.70613 139.90145H309.20613V259.93855H292.70613Z" fill-opacity="0"/>
<path transform="matrix(1,0,0,-1,0,391.91999)" d="M329.1 169.92H345.6V229.92H329.1Z" fill-opacity="0"/>
</svg>
